<?xml version="1.0" encoding="utf-8"?>
<!-- Generator: Adobe Illustrator 21.1.0, SVG Export Plug-In . SVG Version: 6.00 Build 0)  -->
<svg version="1.1" id="Layer_1" xmlns="http://www.w3.org/2000/svg" xmlns:xlink="http://www.w3.org/1999/xlink" x="0px" y="0px"
	 viewBox="0 0 17.8 17.8" style="enable-background:new 0 0 17.8 17.8;" xml:space="preserve">
<style type="text/css">
	.st0{fill:#F85107;}
</style>
<title>favicon</title>
<path class="st0" d="M16,5.5C13.8,1.6,9,0.2,5.1,2.3s-5.3,7-3.2,10.8c0.8,1.5,2.1,2.7,3.7,3.4l1.1-2.4c0.9-1.9,3.6-1.9,4.5,0
	l1.1,2.4c0.1-0.1,0.3-0.1,0.4-0.2C16.6,14.2,18.1,9.4,16,5.5C16,5.5,16,5.5,16,5.5z M8.9,11.9c-1.4,0-2.6-1.2-2.6-2.6
	s1.2-2.6,2.6-2.6s2.6,1.2,2.6,2.6l0,0C11.5,10.7,10.3,11.9,8.9,11.9z"/>
</svg>
